            
<svg width="500" height="500" fill="none" xmlns="http://www.w3.org/2000/svg"><path d="M311.2 262.2V120.8l35.8 26.9v141.5l-35.8-27Z" fill="#D1D3D4"/><path d="M347 289.8c-.1 0-.3 0-.4-.1l-35.8-27c-.2-.1-.3-.3-.3-.5V120.8c0-.4.3-.6.7-.6.1 0 .2 0 .3.1l35.8 27c.2.1.3.3.3.5v141.4c0 .2-.1.5-.4.6h-.2Zm-35.2-27.9 34.6 26V148.1l-34.6-26v139.8Z" fill="#231F20"/><path d="m347 289.2 42.5-19.4V128.4L347 147.7v141.5Z" fill="#fff"/><path d="M347 289.9c-.1 0-.3 0-.4-.1-.2-.1-.3-.4-.3-.6V147.7c0-.3.2-.5.4-.6l42.5-19.4c.3-.2.8 0 .9.3 0 .1.1.2.1.3v141.4c0 .3-.2.5-.4.6l-42.5 19.4c-.1.1-.2.2-.3.2Zm.7-141.7v139.9l41.1-18.8V129.4l-41.1 18.8Z" fill="#231F20"/><path d="m347 147.7 42.5-19.3-34.1-26-44.2 18.4 35.8 26.9Z" fill="#fff"/><path d="M347 148.4c-.2 0-.3 0-.4-.1l-35.8-27c-.2-.2-.3-.4-.3-.7 0-.3.2-.5.4-.6l44.2-18.3c.2-.1.5-.1.7.1l34.1 25.9c.2.1.3.4.3.6 0 .2-.2.5-.4.6l-42.5 19.4c-.1.1-.2.1-.3.1ZM312.6 121l34.5 26 41-18.7-32.9-24.9-42.6 17.6Z" fill="#231F20"/><path d="M262.4 284.8v-72.5l35.9 27v72.5l-35.9-27Z" fill="#D1D3D4"/><path d="M298.3 312.5c-.1 0-.3 0-.4-.1l-35.8-27c-.2-.1-.3-.3-.3-.5v-72.5c0-.4.3-.6.7-.6.1 0 .2 0 .3.1l35.8 27c.2.1.3.3.3.5v72.5c0 .2-.1.5-.4.6h-.2Zm-35.2-28 34.6 26v-70.9l-34.6-26v70.9Z" fill="#231F20"/><path d="m298.3 311.8 42.5-19.4v-72.5l-42.5 19.4v72.5Z" fill="#fff"/><path d="M298.3 312.5c-.1 0-.3 0-.4-.1-.2-.1-.3-.4-.3-.6v-72.5c0-.3.2-.5.4-.6l42.5-19.4c.3-.2.8 0 .9.3 0 .1.1.2.1.3v72.5c0 .3-.2.5-.4.6l-42.5 19.4c-.1.1-.2.1-.3.1Zm.7-72.8v71l41-18.7v-71l-41 18.7Z" fill="#231F20"/><path d="m298.3 239.3 42.5-19.4-34.2-25.9-44.2 18.3 35.9 27Z" fill="#fff"/><path d="M298.3 240c-.2 0-.3 0-.4-.1l-35.8-27c-.2-.2-.3-.4-.3-.6 0-.3.2-.5.4-.6l44.2-18.3c.2-.1.5-.1.7.1l34.1 25.9c.2.1.3.4.3.6 0 .2-.2.5-.4.6L298.6 240c-.1-.1-.2 0-.3 0Zm-34.5-27.5 34.5 26 41-18.7-32.9-24.9-42.6 17.6Z" fill="#231F20"/><path d="M213.7 307.5V192.2l35.8 27v115.3l-35.8-27Z" fill="#D1D3D4"/><path d="M249.5 335.1c-.1 0-.3 0-.4-.1l-35.8-27c-.2-.1-.3-.3-.3-.5V192.2c0-.4.3-.6.7-.6.1 0 .2 0 .3.1l35.8 27c.2.1.3.3.3.5v115.2c0 .2-.1.5-.4.6 0 .1-.1.1-.2.1Zm-35.2-27.9 34.6 26V219.5l-34.6-26v113.7Z" fill="#231F20"/><path d="m249.5 334.5 42.5-19.4V199.8l-42.5 19.4v115.3Z" fill="#fff"/><path d="M249.5 335.2c-.1 0-.3 0-.4-.1-.2-.1-.3-.4-.3-.6V219.2c0-.3.2-.5.4-.6l42.5-19.4c.3-.2.8 0 .9.3 0 .1.1.2.1.3V315c0 .3-.2.5-.4.6L249.8 335c-.1.1-.2.2-.3.2Zm.7-115.5v113.7l41.1-18.8V200.9l-41.1 18.8Z" fill="#231F20"/><path d="m249.5 219.2 42.5-19.4-34.1-25.9-44.2 18.3 35.8 27Z" fill="#fff"/><path d="M249.5 219.9c-.2 0-.3 0-.4-.1l-35.8-27c-.2-.2-.3-.4-.3-.6 0-.3.2-.5.4-.6l44.2-18.3c.2-.1.5-.1.7.1l34.1 25.9c.2.1.3.4.3.6 0 .2-.2.5-.4.6l-42.5 19.4c-.1-.1-.2 0-.3 0Zm-34.4-27.5 34.5 26 41-18.7-32.9-25-42.6 17.7Z" fill="#231F20"/><path d="M164.9 330.1v-71.4l35.9 27v71.4l-35.9-27Z" fill="#D1D3D4"/><path d="M200.8 357.7c-.1 0-.3 0-.4-.1l-35.8-27c-.2-.1-.3-.3-.3-.5v-71.4c0-.4.3-.6.7-.6.1 0 .2 0 .3.1l35.8 27c.2.1.3.3.3.5v71.4c0 .2-.1.5-.4.6h-.2Zm-35.2-27.9 34.6 26V286l-34.6-26v69.8Z" fill="#231F20"/><path d="m200.8 357.1 42.5-19.4v-71.4l-42.5 19.4v71.4Z" fill="#fff"/><path d="M200.8 357.8c-.1 0-.3 0-.4-.1-.2-.1-.3-.4-.3-.6v-71.4c0-.3.2-.5.4-.6l42.5-19.4c.3-.2.8 0 .9.3 0 .1.1.2.1.3v71.4c0 .3-.2.5-.4.6l-42.5 19.4c-.1.1-.2.1-.3.1Zm.7-71.7V356l41.1-18.8v-69.9l-41.1 18.8Z" fill="#231F20"/><path d="m200.8 285.7 42.5-19.4-34.1-25.9-44.3 18.3 35.9 27Z" fill="#fff"/><path d="M200.8 286.4c-.2 0-.3 0-.4-.1l-35.8-27c-.2-.2-.3-.4-.3-.6 0-.3.2-.5.4-.6l44.2-18.3c.2-.1.5-.1.7.1l34.1 25.9c.2.1.3.4.3.6 0 .2-.2.5-.4.6l-42.5 19.4c-.1-.1-.2-.1-.3 0Zm-34.5-27.5 34.5 26 41-18.7-32.8-25-42.7 17.7Z" fill="#231F20"/><path d="M116.2 352.8v-46.4l35.8 27v46.4l-35.8-27Z" fill="#D1D3D4"/><path d="M152 380.4c-.1 0-.3 0-.4-.1l-35.8-27c-.2-.1-.3-.3-.3-.5v-46.3c0-.4.3-.6.7-.6.1 0 .2 0 .3.1l35.8 27c.2.1.3.3.3.5v46.4c0 .2-.1.5-.4.6 0-.1-.1-.1-.2-.1Zm-35.2-27.9 34.6 26v-44.8l-34.6-26v44.8Z" fill="#231F20"/><path d="m152 379.8 42.5-19.4V314L152 333.4v46.4Z" fill="#fff"/><path d="M152 380.5c-.1 0-.3 0-.4-.1-.2-.1-.3-.4-.3-.6v-46.4c0-.3.2-.5.4-.6l42.5-19.4c.3-.2.8 0 .9.3 0 .1.1.2.1.3v46.4c0 .3-.2.5-.4.6l-42.5 19.4c-.1 0-.2.1-.3.1Zm.7-46.7v44.8l41.1-18.8V315l-41.1 18.8Z" fill="#231F20"/><path d="m152 333.4 42.5-19.4-34.1-25.9-44.2 18.3 35.8 27Z" fill="#fff"/><path d="M152 334.1c-.2 0-.3 0-.4-.1l-35.8-27c-.2-.2-.3-.4-.3-.6 0-.3.2-.5.4-.6l44.2-18.3c.2-.1.5-.1.7.1l34.1 25.9c.2.1.3.4.3.6 0 .2-.2.5-.4.6L152.3 334c-.1 0-.2.1-.3.1Zm-34.4-27.5 34.5 26 41-18.7-32.9-25-42.6 17.7Z" fill="#231F20"/><path d="M154.1 398.2c-.2 0-.3-.1-.4-.1L80 341.4c-.3-.2-.4-.7-.2-1 .2-.3.7-.4 1-.2h.1l73.3 56.4 265.2-123.4c.4-.2.8 0 .9.3.1.3 0 .8-.3.9L154.4 398.2c-.1 0-.2.1-.3 0Z" fill="#231F20"/><path d="M259.1 151.2c-.4 0-.7-.3-.7-.7 0-.3.2-.5.4-.7L278 142c.4-.1.8 0 .9.4.1.4 0 .8-.4.9l-19.2 7.8c0 .1-.1.1-.2.1ZM259.1 142.3c-.4 0-.7-.3-.7-.7 0-.3.2-.5.4-.7l32.3-13c.4-.1.8 0 .9.4.1.4 0 .8-.4.9l-32.3 13c0 .1-.1.1-.2.1ZM259.1 133.4c-.4 0-.7-.3-.7-.7 0-.3.2-.5.4-.7l32.3-13c.4-.1.8 0 .9.4.1.4 0 .8-.4.9l-32.3 13c0 .1-.1.1-.2.1ZM259.1 124.4c-.4 0-.7-.3-.7-.7 0-.3.2-.5.4-.7l32.3-13c.4-.1.8 0 .9.4.1.4 0 .8-.4.9l-32.3 13c0 .1-.1.1-.2.1ZM195.7 137.1c-.4 0-.7-.3-.7-.7 0-.3.2-.5.4-.7l28.7-11.6c.4-.1.8 0 .9.4.1.4 0 .8-.4.9L196 137.1h-.3ZM195.7 128.2c-.4 0-.7-.3-.7-.7 0-.3.2-.5.4-.7l32.3-13c.4-.1.8 0 .9.4.1.4 0 .8-.4.9l-32.3 13c0 .1-.1.1-.2.1ZM195.7 119.2c-.4 0-.7-.3-.7-.7 0-.3.2-.5.4-.7l32.3-13c.4-.1.8 0 .9.4.1.4 0 .8-.4.9l-32.3 13c0 .1-.1.1-.2.1ZM399.3 188.9c-.4 0-.7-.3-.7-.7 0-.3.2-.5.4-.7l20-8.1c.4-.1.8 0 .9.4.1.4 0 .8-.4.9l-20 8.1c0 .1-.1.1-.2.1ZM399.3 199.6c-.4 0-.7-.3-.7-.7 0-.3.2-.5.4-.7l20-8.1c.4-.1.8 0 .9.4.1.4 0 .8-.4.9l-20 8.1c0 .1-.1.1-.2.1ZM399.3 210.3c-.4 0-.7-.3-.7-.7 0-.3.2-.5.4-.7l20-8.1c.4-.1.8 0 .9.4.1.4 0 .8-.4.9l-20 8.1c0 .1-.1.1-.2.1ZM399.3 221c-.4 0-.7-.3-.7-.7 0-.3.2-.5.4-.7l20-8.1c.4-.1.8 0 .9.4.1.4 0 .8-.4.9l-20 8.1c0 .1-.1.1-.2.1ZM399.3 231.7c-.4 0-.7-.3-.7-.7 0-.3.2-.5.4-.7l20-8.1c.4-.1.8 0 .9.4.1.4 0 .8-.4.9l-20 8.1c0 .1-.1.1-.2.1ZM399.3 242.4c-.4 0-.7-.3-.7-.7 0-.3.2-.5.4-.7l10-4c.4-.1.8 0 .9.4.1.4 0 .8-.4.9l-10 4c0 .1-.1.1-.2.1Z" fill="#D1D3D4"/><path d="M162 154.4c-2.1.1-4.3.1-6.4-.2-1.2-.1-2.3-.3-3.3-.8-1.1-.5-1.8-1.5-1.9-2.7-.1-1.2.8-2.2 1.9-2.4-1.6-.9-3.2-1.9-4.7-3-1.2-.9-2.3-2-3-3.3-.8-1.3-.7-3 .2-4.3 1.4-1.9 4.4-1.5 6.5-2.5l-4.4-2.9c-.3-.2-.6-.4-.8-.7-.5-.7-.5-1.6 0-2.3.5-.7 1.1-1.2 1.8-1.6 3.4-2 7.3-2.7 11.2-2l-1.9-2.6c-.2-.2-.4-.6-.4-.9-.1-.7.8-1.2 1.6-1.2 1.4 0 2.8.3 4.1.9 2.3.7 4.7.9 7 1.4 3.8.9 8.2 4.1 8.6 8.3.2 1.5-.8 3-2.2 3.5.1 4.5-1.6 7.9-3.9 11.6-1.3 2.2-3.6 5.2-5.9 6.6-1.4.6-2.8 1-4.1 1.1Z" fill="#fff"/><path d="M160 155.2c-1.5 0-3-.1-4.4-.3-1.2-.1-2.5-.4-3.6-.9-1.3-.6-2.1-1.8-2.3-3.2 0-.8.2-1.7.8-2.3l.3-.3c-1.2-.7-2.4-1.5-3.5-2.4-1.3-.9-2.4-2.1-3.2-3.5-.9-1.6-.8-3.5.2-5 1.1-1.4 2.7-1.7 4.3-2l1.2-.3-3.3-2.1c-.4-.2-.7-.5-1-.8-.6-.9-.7-2.1-.1-3.1.5-.8 1.2-1.4 2-1.9 3-1.8 6.5-2.6 10.1-2.4l-.9-1.2c-.3-.4-.5-.8-.6-1.2-.1-1.2 1.1-1.9 2.2-2 1.2 0 2.4.2 3.6.7l.8.3c1.3.4 2.7.6 4 .8 1 .2 2 .3 3 .6 4.1 1 8.7 4.4 9.1 9 .1 1.7-.7 3.2-2.2 4-.1 4.6-2 8.2-4 11.5-.7 1.2-3.3 5.1-6.1 6.8-1.3.7-2.7 1.1-4.2 1.2H160Zm-3.8-29.1c-2.8 0-5.6.8-8.1 2.2-.6.3-1.2.8-1.6 1.4-.3.5-.3 1.1 0 1.5.2.2.4.4.6.5l4.4 2.9c.3.2.4.6.2 1l-.3.3c-.9.4-1.8.7-2.8.8-1.4.3-2.7.6-3.4 1.5-.7 1.1-.7 2.4-.1 3.5.7 1.2 1.7 2.2 2.9 3 1.5 1.1 3 2.1 4.6 3 .3.2.5.6.3 1-.1.2-.3.3-.6.4-.3 0-.6.2-.8.4-.3.3-.5.8-.4 1.2.1.9.7 1.7 1.6 2.1 1 .4 2 .7 3.1.7 2.1.3 4.2.3 6.3.2 1.3-.1 2.5-.4 3.6-1 2.1-1.2 4.2-4.1 5.6-6.3 2.5-4 3.9-7.1 3.8-11.2 0-.3.2-.6.5-.7 1.1-.4 1.8-1.5 1.7-2.7-.3-3.7-4.3-6.8-8-7.7-.9-.2-1.9-.4-2.9-.6-1.4-.2-2.8-.5-4.2-.9l-.8-.3c-1-.4-2-.6-3-.6-.5 0-.9.3-.9.5.1.2.2.4.3.5l1.9 2.6c.2.2.2.6 0 .8-.1.2-.4.4-.7.3-.9-.2-1.8-.3-2.8-.3Z" fill="#231F20"/><path d="M178.1 141.2s4.1 4.5 3.5 5.7c-.6 1.2-2.9.8-2.9.8" fill="#fff"/><path d="M179.5 148.4c-.3 0-.6 0-.9-.1-.4-.1-.6-.5-.5-.8.1-.3.4-.6.7-.5.8.1 2 0 2.2-.4 0-.5-1.6-2.8-3.4-4.9-.3-.2-.4-.7-.2-1 .2-.3.7-.4 1-.2l.2.2c2 2.2 4.3 5.1 3.7 6.4-.5 1.2-1.9 1.3-2.8 1.3Z" fill="#231F20"/><path d="M176.4 134.7c2.4 1.4 2.3 5.1 2.6 7.5.5 3.3.9 6.7 1.2 10.1.2 2.1-5.3 3-6.3 2.5l2.1 8.2-12.2-2.7-.6-7s3.7-.5 5.2-5.2-.2-14-.2-14 5.9-.9 8.2.6Z" fill="#fff"/><path d="M176 163.7h-.1l-12.2-2.7c-.3-.1-.5-.3-.6-.6l-.6-7c0-.4.2-.7.6-.8.1 0 3.3-.6 4.7-4.7 1.4-4.4-.2-13.5-.2-13.6 0-.2 0-.4.1-.5.1-.2.3-.3.5-.3.6-.1 6.1-.9 8.6.6 2.3 1.4 2.6 4.4 2.8 6.8 0 .4.1.9.1 1.3.5 3.3.9 6.7 1.2 10.1 0 .8-.4 1.6-1.1 2-1.5.9-3.2 1.4-5 1.4l1.9 7.2c.1.4-.1.7-.5.8-.1-.1-.1 0-.2 0Zm-11.5-4 10.6 2.3-1.8-7.1c-.1-.3 0-.5.2-.7.2-.2.5-.2.7-.1 1.7.1 3.4-.2 4.8-1.1.4-.3.5-.5.5-.8-.3-3.3-.7-6.7-1.2-10-.1-.4-.1-.9-.1-1.3-.2-2.1-.5-4.7-2.1-5.7-1.5-.9-5-.7-6.9-.5.4 2.3 1.4 9.5.1 13.6-.7 2.6-2.6 4.6-5.1 5.5l.3 5.9Z" fill="#231F20"/><path d="M179.8 149.8s-2.4 2-4.1-.5l4.1.5Z" fill="#fff"/><path d="M177.8 151.2h-.4c-1-.1-1.8-.7-2.3-1.5-.2-.3-.2-.8.2-1 .3-.2.8-.2 1 .2.3.5.8.8 1.4.9.6 0 1.3-.2 1.8-.6.3-.3.7-.2 1 .1.3.3.2.7-.1 1-.8.6-1.7 1-2.6.9Z" fill="#231F20"/><path d="M172 144.3c-.2-.8-.7-1.6-1.3-2.1-.4-.5-.9-1-1.4-1.3-.6-.4-1.2-.5-1.9-.3-.5.2-1 .7-1.1 1.2-.2.6-.2 1.1-.2 1.7.3 2.6 1.9 4.8 4.3 5.9l-.2-.2" fill="#fff"/><path d="M170.3 150.1h-.2c-2.6-1.1-4.4-3.6-4.7-6.4-.1-.7 0-1.4.2-2 .3-.8.8-1.3 1.6-1.6.8-.3 1.8-.1 2.5.3.6.4 1.1.9 1.6 1.5.7.7 1.2 1.5 1.4 2.5.1.4-.2.7-.6.8-.4.1-.7-.2-.8-.6-.2-.7-.6-1.3-1.1-1.8-.4-.5-.8-.9-1.3-1.2-.4-.3-.8-.3-1.3-.2-.4.2-.6.5-.7.8-.1.5-.2.9-.1 1.4.2 2.2 1.5 4.1 3.4 5.1.1 0 .3 0 .4.1.3.2.4.6.3 1-.2.2-.4.3-.6.3ZM175.956 139.97c.271-.055.382-.627.248-1.276-.133-.649-.461-1.13-.731-1.075-.271.056-.382.628-.248 1.277.133.649.461 1.13.731 1.074Z" fill="#231F20"/><path d="m161.8 162.7.4-3.8 14.9-1.4 2.4 5.2c-5.7 1.9-11.9 1.9-17.7 0Z" fill="#fff"/><path d="M170.9 164.8c-3.1 0-6.3-.5-9.3-1.4-.3-.1-.5-.4-.5-.8l.4-3.8c0-.3.3-.6.6-.6l14.8-1.3c.3 0 .6.1.7.4l2.4 5.2c.1.2.1.4 0 .6-.1.2-.2.3-.4.4-2.7.9-5.8 1.4-8.7 1.3Zm-8.3-2.6c5.2 1.5 10.8 1.6 16 .1l-1.9-4.1-13.8 1.2-.3 2.8Z" fill="#231F20"/><path d="M218.6 176.3s3.6-6.5 3.8-7.8c.2-1.3-.2-3.7.5-5.6.7-1.9 2.9-3.7 4.3-1.4 0 0 .1-4 3-2.2 2.6 1.5 4 4.5 3.5 7.4-.3 3.1-9.4 19.7-9.4 19.7" fill="#fff"/><path d="M224.4 187.2c-.1 0-.2 0-.3-.1-.3-.2-.5-.6-.3-.9 2.5-4.6 9.1-17 9.3-19.4.5-2.7-.8-5.4-3.2-6.8-.3-.2-.9-.5-1.2-.3-.3.2-.7 1.3-.7 1.9 0 .4-.3.7-.7.7-.2 0-.4-.1-.6-.3-.5-.8-.9-.7-1.1-.7-.9.3-1.7 1.1-2 2-.3 1.2-.5 2.5-.4 3.7 0 .6 0 1.1-.1 1.7-.2 1.3-3.3 6.9-3.9 8-.1.4-.4.6-.8.6-.4-.1-.6-.4-.6-.8 0-.1.1-.3.2-.4 1.5-2.7 3.6-6.8 3.7-7.5 0-.4 0-.9.1-1.5-.1-1.4.1-2.8.5-4.2.5-1.5 1.7-2.6 3.1-2.9.5-.1.9 0 1.4.3.2-.7.6-1.3 1.2-1.7.9-.4 1.9-.2 2.6.4 2.8 1.6 4.4 4.9 3.8 8.1-.3 3.1-8.5 18.3-9.5 20 0 0-.3.2-.5.1Z" fill="#231F20"/><path d="M122.7 205.6s-.9 3.1-1.3 5.3c-.2 2.1-.2 4.2.1 6.3-.6-.5-1.5-.6-2.2-1 .1.9 0 1.8-.2 2.7-.2.9-.9 1.6-1.8 1.9-.5.1-1 .1-1.4 0-1.7-.2-4.6-.8-5.3-2.6-.2-.7-.2-1.5 0-2.3.7-3.1 5-11.6 5.7-12.9" fill="#fff"/><path d="M116.8 221.6c-.3 0-.6 0-.9-.1-1.5-.2-5-.7-5.8-3.1-.3-.9-.3-1.8 0-2.7.8-3.5 5.7-13 5.7-13.1.2-.3.6-.5.9-.3.3.2.5.6.3.9-1.2 2.4-5 10-5.6 12.8-.2.6-.2 1.3-.1 1.9.6 1.6 3.6 2 4.7 2.2.4.1.8.1 1.2 0 .6-.2 1.1-.8 1.3-1.4.2-.8.2-1.6.2-2.4 0-.3.1-.5.4-.6.2-.1.5-.1.7 0 .3.2.5.3.8.4h.1c-.2-1.7-.2-3.5 0-5.2.4-2.3 1.2-5.3 1.3-5.4.1-.4.5-.6.9-.5.4.1.6.5.5.9 0 0-.9 3.1-1.2 5.2-.2 2-.1 4.1.1 6.1 0 .3-.1.6-.4.7-.3.1-.6.1-.8-.1-.3-.2-.6-.3-.9-.4h-.1c0 .6-.1 1.2-.2 1.8-.3 1.1-1.1 2-2.2 2.4-.4-.1-.7-.1-.9 0Z" fill="#231F20"/><path d="M205.2 264.4s-.6 8.5 3 9.5 20.4-14.7 18.9-17.8c-1.5-3.1-7.7-3.7-12.9 1-2.8 2.7-5.8 5.1-9 7.3Z" fill="#fff"/><path d="M208.6 274.7c-.2 0-.3 0-.5-.1-4.1-1.1-3.6-9.3-3.6-10.3 0-.2.1-.4.3-.6 3.2-2.2 6.2-4.6 9-7.2 3.1-2.8 6.9-4.1 10.1-3.5 1.6.2 3.1 1.2 3.9 2.7.4.7.4 2.2-2.8 6.1-3.8 4.7-12.8 12.9-16.4 12.9Zm-2.7-9.9c-.1 2.3.2 7.8 2.5 8.4 1.9.5 10.6-6.4 15.5-12.3 3-3.6 2.6-4.5 2.6-4.5-.6-1-1.7-1.7-2.9-1.9-2.2-.4-5.6.2-8.9 3.1-2.7 2.6-5.7 5-8.8 7.2Z" fill="#231F20"/><path d="M166 229s21.9 4.1 37.6-.1l1.4 35.5s6.2 1.7 12.1-7.3c0 0 2.9-44-1.3-45.8-4.2-1.8-41.9 3.7-41.9 3.7l-7.9 14Z" fill="#231F20"/><path d="M206.3 265.2c-.5 0-1 0-1.5-.2-.3-.1-.5-.3-.5-.6l-1.3-34.7c-15.7 3.8-36.9 0-37.1-.1-.2 0-.4-.2-.5-.4-.1-.2-.1-.4 0-.6l7.9-14c.1-.2.3-.3.5-.4 3.9-.6 37.9-5.4 42.3-3.6 4.4 1.8 2.5 36 1.8 46.5 0 .1 0 .2-.1.3-4.5 6.9-9.2 7.8-11.5 7.8Zm-.6-1.4c1.5.2 6.2 0 10.8-7 1.8-27.1.9-44.1-.9-44.9-3-1.2-26.1 1.5-41.2 3.7l-7.2 12.9c4.4.7 22.8 3.3 36.3-.3.2-.1.4 0 .6.1.2.1.3.3.3.5l1.3 35Z" fill="#231F20"/><path d="M153.7 223.8s5.9 32.6 4.9 33.3c-1 .7-29.3 28.6-29.3 28.6l.5 10.9s41.5-25.9 42.9-32.2c1.4-6.3 5-42.4 5-42.4l-24 1.8Z" fill="#231F20"/><path d="M129.8 297.2c-.1 0-.2 0-.3-.1-.2-.1-.4-.3-.4-.6l-.5-10.9c0-.2.1-.4.2-.5 4.5-4.5 26.6-26.3 29.2-28.5.3-2.2-2.9-21.1-5-32.7 0-.2 0-.4.1-.6.1-.2.3-.3.5-.3l24-1.9c.2 0 .4.1.6.2.1.1.2.4.2.6-.1 1.5-3.6 36.3-5 42.5-1.4 6.2-39 30-43.2 32.6-.2.1-.3.2-.4.2Zm.2-11.3.4 9.4c16.6-10.4 40.6-26.8 41.6-31.1 1.3-5.6 4.4-36.1 4.9-41.5l-22.4 1.8c5.8 32.4 4.9 32.9 4.4 33.2-1 .6-17.7 17.1-28.9 28.2Z" fill="#231F20"/><path d="M192.5 168.8s-2.3-7-23.9-7.6c-5.2-.2-10.3.9-15 3.2-.3 3.4.2 51.2-1.1 62.7 0 0 26.6 5.4 36.9-11.9.1-.1 1.8-42.7 3.1-46.4Z" fill="#FB5827"/><path d="m83.4 242.4 6.4-23.6c.4-1.5 1.9-2.4 3.4-2l39.4 10.7c1.5.4 2.4 1.9 2 3.4l-6.4 23.6c-.4 1.5-1.9 2.4-3.4 2l-39.4-10.7c-1.5-.3-2.4-1.9-2-3.4Z" fill="#fff"/><path d="M124.7 257.1c-.4 0-.8-.1-1.2-.2l-37.2-10.1c-2.5-.7-3.9-3.2-3.3-5.7l5.8-21.5c.7-2.5 3.2-3.9 5.7-3.3l37.2 10.1c2.5.7 3.9 3.2 3.3 5.7l-5.8 21.5c-.6 2.1-2.4 3.5-4.5 3.5Zm-.8-1.5c1.7.5 3.5-.5 4-2.3l5.8-21.5c.5-1.7-.5-3.5-2.3-4l-37.2-10.1c-1.7-.5-3.5.5-4 2.3l-5.8 21.5c-.5 1.7.5 3.5 2.3 4l37.2 10.1Z" fill="#231F20"/><path d="M128.5 235.5h-.2l-35.4-9.6c-.4-.1-.6-.5-.5-.9.1-.4.5-.6.8-.5l35.4 9.6c.4.1.6.5.5.8.1.4-.2.6-.6.6Z" fill="#D1D3D4"/><path d="M121.2 225.1h-.2l-16.5-4.5c-.4-.1-.6-.5-.5-.9l.9-3.2c.5-2 2.6-3.1 4.5-2.6l10.8 2.9c2 .5 3.1 2.6 2.6 4.5l-.9 3.2c-.1.2-.2.3-.3.4-.1.2-.2.2-.4.2Zm-15.7-5.7 15.2 4.1.7-2.5c.3-1.2-.4-2.4-1.6-2.8l-10.8-2.9c-1.2-.3-2.4.4-2.8 1.6l-.7 2.5Z" fill="#231F20"/><path d="M158.8 162.3s-20.4 8-25.1 12c-4.7 4-21.5 28.8-21.5 28.8l14.6 5.5s10.3-17.1 13.6-19.9c3.3-2.8 20.2-3.5 20.2-3.5l-1.8-22.9ZM192.5 168.8s15.4 20.1 17.2 18.6c1.8-1.5 8.4-15.9 8.4-15.9l11.2 9.4s-4.1 25.8-16 24.8-32.8-18.7-32.8-18.7l12-18.2Z" fill="#FB5827"/><path d="M200 201.2c-.1 0-.2 0-.3-.1-10.8-4.6-19.4-13.7-19.5-13.8-.3-.3-.3-.7 0-1 .3-.3.7-.3 1 0 .1.1 8.6 9 19.1 13.5.4.2.5.6.4.9-.2.3-.4.5-.7.5ZM153.1 217.3c-.4 0-.7-.3-.7-.7.3-6.6.1-39.7.1-40.1 0-.4.3-.7.7-.7.4 0 .7.3.7.7 0 .3.1 33.4-.1 40.1.1.4-.2.7-.7.7Z" fill="#231F20"/><path d="M135.9 291c1.2-8.1-1.9-11.4-4.8-11.1-2.9.3-4.7.1-5.7 8.1s.6 20.1 5.1 20c4.5-.1 4.2-8.9 5.4-17Z" fill="#fff"/><path d="M130.5 308.7c-1.1 0-2-.5-2.7-1.4-2.9-3.3-4-12.8-3.1-19.5 1-7.8 2.9-8.4 6-8.7h.3c1.4-.1 2.7.4 3.6 1.4 1.9 2 2.6 5.7 1.9 10.5-.2 1.7-.4 3.5-.6 5.2-.6 6.7-1.2 12.5-5.4 12.5Zm1-28.1h-.6c-2.4.2-3.8.4-4.7 7.4-.8 6.3.1 15.4 2.7 18.4.4.5 1 .8 1.6.9 2.9 0 3.4-5.2 4-11.2.2-1.7.4-3.5.6-5.2.8-5.8-.6-8.3-1.5-9.3-.5-.7-1.3-1.1-2.1-1ZM173.3 347.6c-.4 0-.7-.3-.7-.7 0-.3.2-.6.5-.7 41.3-12.1 62.1-50.4 77.2-78.3 9.7-17.8 16.7-30.7 25.3-29.4 9.6 1.5 14.1 6.8 18.4 11.9 5.4 6.4 10.5 12.5 25.5 11.8 26.8-1.2 94.9-136.2 95.6-137.6.2-.3.6-.5.9-.3.3.2.5.6.3.9-.2.3-17.4 34.6-37.8 68.5-27.5 45.8-47.3 69.2-59 69.8-15.6.7-21.2-5.9-26.6-12.3-4.3-5.1-8.4-10-17.5-11.5-7.7-1.2-14.8 12-23.9 28.6-15.3 28.1-36.2 66.6-78 78.9-.1.4-.1.4-.2.4Z" fill="#231F20"/><path d="M415.7 139.7c-.4 0-.7-.3-.7-.7v-12.8l-11.9 4.9c-.3.2-.8 0-.9-.3-.2-.3 0-.8.3-.9h.1l12.8-5.2c.2-.1.5-.1.6.1.2.1.3.3.3.6V139c.1.4-.2.7-.6.7Z" fill="#231F20"/></svg>