<?xml version="1.0" encoding="UTF-8" standalone="no"?>
<!-- Created with Inkscape (http://www.inkscape.org/) -->

<svg
   width="40.113377mm"
   height="54.49884mm"
   viewBox="0 0 40.113377 54.49884"
   version="1.1"
   id="svg1"
   xmlns:inkscape="http://www.inkscape.org/namespaces/inkscape"
   xmlns:sodipodi="http://sodipodi.sourceforge.net/DTD/sodipodi-0.dtd"
   xmlns="http://www.w3.org/2000/svg"
   xmlns:svg="http://www.w3.org/2000/svg">
  <sodipodi:namedview
     id="namedview1"
     pagecolor="#ffffff"
     bordercolor="#000000"
     borderopacity="0.25"
     inkscape:showpageshadow="2"
     inkscape:pageopacity="0.0"
     inkscape:pagecheckerboard="0"
     inkscape:deskcolor="#d1d1d1"
     inkscape:document-units="mm" />
  <defs
     id="defs1">
    <clipPath
       clipPathUnits="userSpaceOnUse"
       id="clipPath22">
      <path
         d="M 0,500 H 500 V 0 H 0 Z"
         transform="translate(-135.1518,-243.4338)"
         id="path22" />
    </clipPath>
    <clipPath
       clipPathUnits="userSpaceOnUse"
       id="clipPath24">
      <path
         d="M 0,500 H 500 V 0 H 0 Z"
         transform="translate(-141.5007,-246.18101)"
         id="path24" />
    </clipPath>
    <clipPath
       clipPathUnits="userSpaceOnUse"
       id="clipPath26">
      <path
         d="M 0,500 H 500 V 0 H 0 Z"
         transform="translate(-141.0831,-253.64141)"
         id="path26" />
    </clipPath>
    <clipPath
       clipPathUnits="userSpaceOnUse"
       id="clipPath28">
      <path
         d="M 0,500 H 500 V 0 H 0 Z"
         transform="translate(-137.6905,-248.00811)"
         id="path28" />
    </clipPath>
    <clipPath
       clipPathUnits="userSpaceOnUse"
       id="clipPath30">
      <path
         d="M 0,500 H 500 V 0 H 0 Z"
         transform="translate(-153.17301,-276.25451)"
         id="path30" />
    </clipPath>
    <clipPath
       clipPathUnits="userSpaceOnUse"
       id="clipPath32">
      <path
         d="M 0,500 H 500 V 0 H 0 Z"
         transform="translate(-158.5545,-277.36281)"
         id="path32" />
    </clipPath>
    <clipPath
       clipPathUnits="userSpaceOnUse"
       id="clipPath34">
      <path
         d="M 0,500 H 500 V 0 H 0 Z"
         transform="translate(-161.0932,-281.9298)"
         id="path34" />
    </clipPath>
    <clipPath
       clipPathUnits="userSpaceOnUse"
       id="clipPath36">
      <path
         d="M 0,500 H 500 V 0 H 0 Z"
         transform="translate(-164.4859,-287.56311)"
         id="path36" />
    </clipPath>
    <clipPath
       clipPathUnits="userSpaceOnUse"
       id="clipPath38">
      <path
         d="M 0,500 H 500 V 0 H 0 Z"
         transform="translate(-164.9034,-280.10271)"
         id="path38" />
    </clipPath>
    <clipPath
       clipPathUnits="userSpaceOnUse"
       id="clipPath50">
      <path
         d="M 0,500 H 500 V 0 H 0 Z"
         transform="translate(-105.27171,-212.1564)"
         id="path50" />
    </clipPath>
    <clipPath
       clipPathUnits="userSpaceOnUse"
       id="clipPath52">
      <path
         d="M 0,500 H 500 V 0 H 0 Z"
         transform="translate(-110.2635,-208.59371)"
         id="path52" />
    </clipPath>
    <clipPath
       clipPathUnits="userSpaceOnUse"
       id="clipPath54">
      <path
         d="M 0,500 H 500 V 0 H 0 Z"
         transform="translate(-112.8022,-213.16811)"
         id="path54" />
    </clipPath>
    <clipPath
       clipPathUnits="userSpaceOnUse"
       id="clipPath56">
      <path
         d="M 0,500 H 500 V 0 H 0 Z"
         transform="translate(-116.1948,-218.80131)"
         id="path56" />
    </clipPath>
    <clipPath
       clipPathUnits="userSpaceOnUse"
       id="clipPath58">
      <path
         d="M 0,500 H 500 V 0 H 0 Z"
         transform="translate(-116.60601,-211.33721)"
         id="path58" />
    </clipPath>
    <clipPath
       clipPathUnits="userSpaceOnUse"
       id="clipPath46">
      <path
         d="M 0,500 H 500 V 0 H 0 Z"
         transform="translate(-189.2139,-317.75461)"
         id="path46" />
    </clipPath>
    <clipPath
       clipPathUnits="userSpaceOnUse"
       id="clipPath42">
      <path
         d="M 0,500 H 500 V 0 H 0 Z"
         transform="translate(-183.2826,-307.55441)"
         id="path42" />
    </clipPath>
    <clipPath
       clipPathUnits="userSpaceOnUse"
       id="clipPath40">
      <path
         d="M 0,500 H 500 V 0 H 0 Z"
         transform="translate(-178.9134,-308.02991)"
         id="path40" />
    </clipPath>
  </defs>
  <g
     inkscape:label="Camada 1"
     inkscape:groupmode="layer"
     id="layer1"
     transform="translate(-85.195833,-121.17917)">
    <path
       id="path8"
       d="m 116.81753,160.96943 -6.11399,-3.55318 -0.0889,-31.33442 6.11399,3.55317 z"
       style="fill:#3ab8d3 icc-color(sRGB-IEC61966-2, 0.1, 0.22698975, 0.72198486, 0.82699585);fill-opacity:1;fill-rule:nonzero;stroke:none;stroke-width:0.352778" />
    <path
       id="path9"
       d="m 116.72866,129.6349 -6.11399,-3.55318 8.49171,-4.90255 6.11399,3.55318 z"
       style="fill:#69edfe icc-color(sRGB-IEC61966-2, 0.1, 0.4119873, 0.9289856, 0.99598694);fill-opacity:1;fill-rule:nonzero;stroke:none;stroke-width:0.352778" />
    <path
       id="path10"
       d="m 125.22031,124.73224 0.0889,31.33443 -8.49171,4.9029 -0.0889,-31.33478 z"
       style="fill:#42e8fd icc-color(sRGB-IEC61966-2, 0.1, 0.25898743, 0.9099884, 0.99198914);fill-opacity:1;fill-rule:nonzero;stroke:none;stroke-width:0.352778" />
    <path
       id="path11"
       d="m 108.32588,165.87205 -6.11399,-3.55282 -0.0727,-25.67835 6.11399,3.55318 z"
       style="fill:#0e67bf icc-color(sRGB-IEC61966-2, 0.1, 0.05499268, 0.4039917, 0.74899292);fill-opacity:1;fill-rule:nonzero;stroke:none;stroke-width:0.352778" />
    <path
       id="path12"
       d="m 116.74471,135.29137 0.0727,25.67799 -8.49136,4.90255 -0.073,-25.67799 z"
       style="fill:#237cd4 icc-color(sRGB-IEC61966-2, 0.1, 0.13699341, 0.48599243, 0.83099365);fill-opacity:1;fill-rule:nonzero;stroke:none;stroke-width:0.352778" />
    <path
       id="path13"
       d="m 108.25311,140.194 -6.11399,-3.55318 8.49171,-4.90255 6.11399,3.55318 z"
       style="fill:#318ae2 icc-color(sRGB-IEC61966-2, 0.1, 0.19198608, 0.54098511, 0.88598633);fill-opacity:1;fill-rule:nonzero;stroke:none;stroke-width:0.352778" />
    <path
       id="path14"
       d="m 99.778782,151.57849 -6.113991,-3.55282 8.492769,-4.90326 6.11399,3.55282 z"
       style="fill:#f46666 icc-color(sRGB-IEC61966-2, 0.1, 0.95698547, 0.3999939, 0.3999939);fill-opacity:1;fill-rule:nonzero;stroke:none;stroke-width:0.352778" />
    <path
       id="path15"
       d="m 99.833181,170.77535 -6.113991,-3.55282 -0.05433,-19.19711 6.113991,3.55318 z"
       style="fill:#b12323 icc-color(sRGB-IEC61966-2, 0.1, 0.69398499, 0.13699341, 0.13699341);fill-opacity:1;fill-rule:nonzero;stroke:none;stroke-width:0.352778" />
    <path
       id="path16"
       d="m 108.27148,146.67526 0.0543,19.19675 -8.492774,4.90326 -0.05433,-19.19675 z"
       style="fill:#e15353 icc-color(sRGB-IEC61966-2, 0.1, 0.88198853, 0.32499695, 0.32499695);fill-opacity:1;fill-rule:nonzero;stroke:none;stroke-width:0.352778" />
    <path
       id="path17"
       d="m 91.341575,175.67801 -6.113991,-3.55318 -0.03175,-11.19046 6.113991,3.55282 z"
       style="fill:#102c50 icc-color(sRGB-IEC61966-2, 0.1, 0.06298828, 0.17298889, 0.31399536);fill-opacity:1;fill-rule:nonzero;stroke:none;stroke-width:0.352778" />
    <path
       id="path18"
       d="m 91.309825,164.48722 -6.113991,-3.55282 8.491713,-4.90291 6.113991,3.55318 z"
       style="fill:#193860 icc-color(sRGB-IEC61966-2, 0.1, 0.09799194, 0.21998596, 0.37599182);fill-opacity:1;fill-rule:nonzero;stroke:none;stroke-width:0.352778" />
    <path
       id="path19"
       d="m 99.801431,159.5846 0.03175,11.19082 -8.491713,4.90255 -0.03175,-11.19082 z"
       style="fill:#264e7a icc-color(sRGB-IEC61966-2, 0.1, 0.14898682, 0.30599976, 0.47799683);fill-opacity:1;fill-rule:nonzero;stroke:none;stroke-width:0.352778" />
    <path
       id="path20"
       d="m 102.54954,155.62809 -0.002,-0.92146 -0.3175,1.10596 0.31997,-0.1845 m 0.38523,-0.22225 0.24765,-0.14323 0.001,0.44521 -0.248,0.14323 0.002,0.63641 -0.38489,0.2226 -0.002,-0.63676 -0.68262,0.39405 -0.001,-0.44521 0.67733,-2.26024 0.38523,-0.22225 z"
       style="fill:#c5c5c5 icc-color(sRGB-IEC61966-2, 0.1, 0.772995, 0.772995, 0.772995);fill-opacity:1;fill-rule:nonzero;stroke:none;stroke-width:0.352778" />
    <path
       id="path21"
       d="m 0,0 -0.013,4.563 c 0,0.199 -0.065,0.338 -0.186,0.407 C -0.321,5.04 -0.475,5.024 -0.647,4.925 -0.819,4.825 -0.966,4.667 -1.087,4.458 -1.214,4.245 -1.271,4.035 -1.271,3.837 l 0.013,-4.563 c 0.001,-0.198 0.059,-0.341 0.187,-0.407 0.122,-0.069 0.269,-0.058 0.441,0.042 0.172,0.099 0.325,0.261 0.446,0.471 C -0.063,-0.411 0.001,-0.198 0,0 M 0.615,6.315 C 0.955,6.122 1.122,5.741 1.124,5.19 L 1.137,0.634 C 1.138,0.084 0.967,-0.493 0.63,-1.069 0.292,-1.654 -0.116,-2.08 -0.588,-2.353 c -0.485,-0.28 -0.901,-0.329 -1.234,-0.132 -0.339,0.193 -0.513,0.564 -0.515,1.114 L -2.35,3.185 c -10e-4,0.558 0.17,1.127 0.507,1.711 0.337,0.584 0.746,1.018 1.231,1.298 0.479,0.277 0.888,0.315 1.227,0.121"
       style="fill:#c5c5c5 icc-color(sRGB-IEC61966-2, 0.1, 0.772995, 0.772995, 0.772995);fill-opacity:1;fill-rule:nonzero;stroke:none"
       transform="matrix(0.35277776,0,0,-0.35277776,104.32778,155.00579)"
       clip-path="url(#clipPath22)" />
    <path
       id="path23"
       d="m 0,0 -0.007,2.384 c 0,0.103 -0.039,0.176 -0.103,0.213 C -0.167,2.63 -0.25,2.619 -0.34,2.567 -0.436,2.512 -0.512,2.431 -0.576,2.328 -0.639,2.218 -0.671,2.104 -0.671,2.001 l 0.007,-2.384 c 0,-0.11 0.032,-0.18 0.097,-0.217 0.064,-0.036 0.14,-0.028 0.236,0.027 0.089,0.051 0.172,0.136 0.23,0.243 C -0.038,-0.22 0,-0.11 0,0 M 0.317,3.291 C 0.49,3.186 0.58,2.995 0.581,2.709 L 0.587,0.324 C 0.588,0.038 0.5,-0.263 0.321,-0.564 0.143,-0.865 -0.067,-1.09 -0.316,-1.233 c -0.249,-0.144 -0.46,-0.163 -0.64,-0.068 -0.179,0.102 -0.269,0.292 -0.27,0.579 l -0.007,2.384 c 0,0.286 0.088,0.587 0.267,0.896 0.178,0.308 0.388,0.533 0.637,0.677 0.256,0.147 0.467,0.159 0.646,0.056"
       style="fill:#c5c5c5 icc-color(sRGB-IEC61966-2, 0.1, 0.772995, 0.772995, 0.772995);fill-opacity:1;fill-rule:nonzero;stroke:none"
       transform="matrix(0.35277776,0,0,-0.35277776,106.56753,154.03664)"
       clip-path="url(#clipPath24)" />
    <path
       id="path25"
       d="m 0,0 0.638,0.369 -3.684,-10.983 -0.639,-0.369 z"
       style="fill:#c5c5c5 icc-color(sRGB-IEC61966-2, 0.1, 0.772995, 0.772995, 0.772995);fill-opacity:1;fill-rule:nonzero;stroke:none"
       transform="matrix(0.35277776,0,0,-0.35277776,106.42021,151.40478)"
       clip-path="url(#clipPath26)" />
    <path
       id="path27"
       d="m 0,0 c 0.064,-0.037 0.141,-0.029 0.237,0.026 0.089,0.052 0.172,0.137 0.235,0.247 0.064,0.11 0.096,0.216 0.095,0.319 L 0.561,2.984 C 0.56,3.087 0.528,3.156 0.464,3.193 0.4,3.229 0.317,3.218 0.228,3.166 0.132,3.111 0.055,3.03 -0.008,2.92 -0.072,2.81 -0.104,2.703 -0.103,2.601 L -0.097,0.209 C -0.096,0.106 -0.064,0.036 0,0 M 0.895,0.039 C 0.717,-0.269 0.5,-0.498 0.258,-0.638 0.002,-0.785 -0.209,-0.804 -0.388,-0.702 c -0.179,0.102 -0.27,0.293 -0.27,0.579 l -0.007,2.385 c -0.001,0.286 0.088,0.587 0.266,0.895 0.178,0.302 0.389,0.526 0.644,0.674 0.249,0.143 0.466,0.166 0.639,0.06 0.18,-0.102 0.27,-0.293 0.271,-0.579 L 1.161,0.928 C 1.162,0.642 1.073,0.348 0.895,0.039"
       style="fill:#c5c5c5 icc-color(sRGB-IEC61966-2, 0.1, 0.772995, 0.772995, 0.772995);fill-opacity:1;fill-rule:nonzero;stroke:none"
       transform="matrix(0.35277776,0,0,-0.35277776,105.22338,153.39208)"
       clip-path="url(#clipPath28)" />
    <path
       id="path29"
       d="m 0,0 c -0.076,-0.184 -0.114,-0.367 -0.114,-0.536 l 0.005,-1.526 c 0,-0.205 0.045,-0.348 0.135,-0.429 0.096,-0.091 0.237,-0.083 0.409,0.016 0.173,0.1 0.313,0.254 0.408,0.456 0.096,0.187 0.14,0.382 0.139,0.587 L 0.978,0.109 C 0.977,0.351 0.9,0.505 0.74,0.574 0.67,0.607 0.567,0.592 0.433,0.515 0.242,0.404 0.102,0.235 0,0 M 2.113,3.586 0.97,2.926 V 3.132 C 0.969,3.337 0.917,3.477 0.828,3.564 0.732,3.648 0.597,3.644 0.418,3.541 0.246,3.442 0.112,3.291 0.017,3.096 -0.079,2.902 -0.123,2.707 -0.122,2.502 L -0.117,0.836 C 0.131,1.237 0.411,1.524 0.711,1.697 1.197,1.977 1.555,1.993 1.798,1.744 2.01,1.528 2.12,1.129 2.122,0.527 L 2.126,-0.904 C 2.095,-1.458 1.931,-2.001 1.619,-2.541 1.313,-3.078 0.931,-3.482 0.477,-3.744 c -0.485,-0.28 -0.881,-0.311 -1.195,-0.095 -0.308,0.204 -0.462,0.585 -0.464,1.136 l -0.013,4.556 c -10e-4,0.411 0.087,0.829 0.253,1.255 0.171,0.43 0.419,0.816 0.732,1.158 0.204,0.22 0.421,0.405 0.663,0.545 C 0.932,5.087 1.329,5.11 1.649,4.898 1.956,4.694 2.111,4.313 2.113,3.762 Z"
       style="fill:#c5c5c5 icc-color(sRGB-IEC61966-2, 0.1, 0.772995, 0.772995, 0.772995);fill-opacity:1;fill-rule:nonzero;stroke:none"
       transform="matrix(0.35277776,0,0,-0.35277776,110.68526,143.42738)"
       clip-path="url(#clipPath30)" />
    <path
       id="path31"
       d="m 0,0 -0.013,4.564 c 0,0.198 -0.065,0.329 -0.186,0.406 C -0.321,5.039 -0.475,5.024 -0.647,4.925 -0.819,4.825 -0.966,4.667 -1.087,4.458 -1.208,4.241 -1.271,4.035 -1.271,3.837 l 0.013,-4.563 c 0.001,-0.206 0.065,-0.338 0.187,-0.407 0.122,-0.077 0.269,-0.058 0.441,0.042 0.172,0.099 0.325,0.254 0.446,0.471 C -0.063,-0.411 0.001,-0.205 0,0 M 0.615,6.315 C 0.955,6.114 1.122,5.741 1.124,5.19 L 1.137,0.634 C 1.138,0.077 0.967,-0.493 0.63,-1.077 0.292,-1.654 -0.116,-2.088 -0.588,-2.36 c -0.485,-0.281 -0.894,-0.318 -1.234,-0.125 -0.339,0.193 -0.513,0.564 -0.515,1.114 L -2.35,3.185 c -10e-4,0.557 0.17,1.127 0.507,1.711 0.338,0.584 0.746,1.018 1.231,1.298 0.479,0.277 0.888,0.315 1.227,0.121"
       style="fill:#c5c5c5 icc-color(sRGB-IEC61966-2, 0.1, 0.772995, 0.772995, 0.772995);fill-opacity:1;fill-rule:nonzero;stroke:none"
       transform="matrix(0.35277776,0,0,-0.35277776,112.58373,143.0364)"
       clip-path="url(#clipPath32)" />
    <path
       id="path33"
       d="M 0,0 C 0.064,-0.036 0.141,-0.029 0.237,0.026 0.326,0.078 0.409,0.163 0.472,0.273 0.536,0.383 0.568,0.497 0.567,0.6 L 0.561,2.984 C 0.56,3.094 0.528,3.164 0.464,3.2 0.4,3.237 0.317,3.225 0.228,3.174 0.132,3.119 0.055,3.038 -0.008,2.927 -0.072,2.817 -0.104,2.711 -0.103,2.601 L -0.097,0.216 C -0.096,0.113 -0.064,0.036 0,0 M 0.895,0.047 C 0.717,-0.262 0.5,-0.49 0.258,-0.63 0.002,-0.778 -0.209,-0.797 -0.388,-0.694 c -0.179,0.094 -0.27,0.292 -0.27,0.571 l -0.007,2.392 c -0.001,0.286 0.088,0.58 0.266,0.888 0.178,0.309 0.389,0.533 0.644,0.681 0.249,0.144 0.466,0.166 0.639,0.06 0.18,-0.102 0.27,-0.3 0.271,-0.579 L 1.161,0.928 C 1.162,0.649 1.073,0.348 0.895,0.047"
       style="fill:#c5c5c5 icc-color(sRGB-IEC61966-2, 0.1, 0.772995, 0.772995, 0.772995);fill-opacity:1;fill-rule:nonzero;stroke:none"
       transform="matrix(0.35277776,0,0,-0.35277776,113.47933,141.42526)"
       clip-path="url(#clipPath34)" />
    <path
       id="path35"
       d="m 0,0 0.638,0.369 -3.684,-10.976 -0.639,-0.368 z"
       style="fill:#c5c5c5 icc-color(sRGB-IEC61966-2, 0.1, 0.772995, 0.772995, 0.772995);fill-opacity:1;fill-rule:nonzero;stroke:none"
       transform="matrix(0.35277776,0,0,-0.35277776,114.6762,139.43796)"
       clip-path="url(#clipPath36)" />
    <path
       id="path37"
       d="m 0,0 -0.007,2.384 c 0,0.111 -0.032,0.18 -0.096,0.217 C -0.167,2.637 -0.25,2.626 -0.34,2.574 -0.436,2.519 -0.512,2.438 -0.576,2.328 -0.639,2.218 -0.671,2.111 -0.671,2.001 l 0.007,-2.384 c 0,-0.103 0.032,-0.173 0.097,-0.209 0.064,-0.037 0.14,-0.029 0.236,0.026 0.089,0.052 0.172,0.136 0.236,0.247 C -0.031,-0.209 0,-0.103 0,0 M 0.317,3.299 C 0.49,3.193 0.58,2.995 0.581,2.716 L 0.587,0.332 C 0.588,0.038 0.5,-0.255 0.321,-0.557 0.15,-0.862 -0.067,-1.082 -0.31,-1.222 -0.565,-1.37 -0.776,-1.389 -0.956,-1.294 c -0.179,0.102 -0.269,0.293 -0.27,0.579 l -0.007,2.384 c 0,0.287 0.088,0.588 0.267,0.896 0.178,0.302 0.388,0.526 0.644,0.673 0.249,0.144 0.46,0.163 0.639,0.061"
       style="fill:#c5c5c5 icc-color(sRGB-IEC61966-2, 0.1, 0.772995, 0.772995, 0.772995);fill-opacity:1;fill-rule:nonzero;stroke:none"
       transform="matrix(0.35277776,0,0,-0.35277776,114.82349,142.06982)"
       clip-path="url(#clipPath38)" />
    <path
       id="path39"
       d="M 0,0 -0.004,1.526 C -0.005,1.732 -0.056,1.871 -0.153,1.962 -0.242,2.05 -0.383,2.035 -0.555,1.935 -0.728,1.836 -0.862,1.692 -0.957,1.498 -1.052,1.296 -1.097,1.101 -1.096,0.896 l 0.004,-1.541 c 0.001,-0.249 0.078,-0.403 0.232,-0.476 0.07,-0.033 0.173,-0.018 0.307,0.059 0.281,0.162 0.452,0.431 0.522,0.809 C -0.012,-0.139 0,-0.051 0,0 M 0.611,3.3 C 0.919,3.095 1.073,2.714 1.075,2.164 L 1.087,-2.392 C 1.089,-2.95 0.931,-3.512 0.619,-4.081 0.301,-4.647 -0.088,-5.07 -0.56,-5.343 c -0.486,-0.28 -0.882,-0.31 -1.196,-0.095 -0.308,0.205 -0.462,0.586 -0.464,1.136 v 0.176 l 1.136,0.656 0.001,-0.205 c 0,-0.206 0.046,-0.348 0.142,-0.433 0.096,-0.084 0.23,-0.072 0.403,0.027 0.172,0.1 0.312,0.247 0.401,0.438 0.096,0.195 0.146,0.393 0.146,0.598 l -0.005,1.673 c -0.255,-0.412 -0.535,-0.698 -0.829,-0.868 -0.479,-0.277 -0.843,-0.296 -1.081,-0.043 -0.211,0.215 -0.321,0.622 -0.323,1.224 l -0.004,1.431 c 0.018,0.399 0.113,0.8 0.291,1.211 0.171,0.415 0.413,0.783 0.713,1.103 0.198,0.217 0.408,0.382 0.644,0.519 0.479,0.276 0.876,0.307 1.196,0.095"
       style="fill:#2d8ea3 icc-color(sRGB-IEC61966-2, 0.1, 0.17599487, 0.55699158, 0.63899231);fill-opacity:1;fill-rule:nonzero;stroke:none"
       transform="matrix(0.35277776,0,0,-0.35277776,119.7659,132.21772)"
       clip-path="url(#clipPath40)" />
    <path
       id="path41"
       d="m 0,0 -0.013,4.564 c 0,0.198 -0.058,0.333 -0.186,0.406 C -0.321,5.04 -0.468,5.028 -0.647,4.925 -0.819,4.825 -0.966,4.667 -1.087,4.458 -1.208,4.241 -1.271,4.035 -1.271,3.837 l 0.013,-4.563 c 0.001,-0.206 0.065,-0.338 0.187,-0.407 0.122,-0.077 0.269,-0.058 0.441,0.042 0.179,0.103 0.325,0.254 0.446,0.471 C -0.056,-0.407 0.001,-0.205 0,0 M 0.615,6.315 C 0.955,6.114 1.122,5.741 1.124,5.19 L 1.137,0.634 C 1.138,0.077 0.973,-0.489 0.636,-1.073 0.292,-1.654 -0.116,-2.088 -0.588,-2.36 c -0.485,-0.281 -0.894,-0.318 -1.234,-0.125 -0.339,0.193 -0.513,0.564 -0.515,1.114 L -2.35,3.185 c -10e-4,0.558 0.17,1.127 0.507,1.711 0.344,0.588 0.752,1.014 1.231,1.291 0.485,0.28 0.894,0.325 1.227,0.128"
       style="fill:#2d8ea3 icc-color(sRGB-IEC61966-2, 0.1, 0.17599487, 0.55699158, 0.63899231);fill-opacity:1;fill-rule:nonzero;stroke:none"
       transform="matrix(0.35277776,0,0,-0.35277776,121.30726,132.38547)"
       clip-path="url(#clipPath42)" />
    <path
       id="path45"
       d="M 0,0 0.638,0.369 -3.04,-10.603 -3.685,-10.975 Z"
       style="fill:#2d8ea3 icc-color(sRGB-IEC61966-2, 0.1, 0.17599487, 0.55699158, 0.63899231);fill-opacity:1;fill-rule:nonzero;stroke:none"
       transform="matrix(0.35277776,0,0,-0.35277776,123.39969,128.78707)"
       clip-path="url(#clipPath46)" />
    <path
       id="path49"
       d="M 0,0 C 0.479,0.276 0.888,0.307 1.228,0.092 1.567,-0.131 1.734,-0.512 1.736,-1.063 1.738,-1.635 1.631,-2.248 1.409,-2.905 1.295,-3.265 1.015,-3.926 0.577,-4.899 0.456,-5.16 0.278,-5.572 0.043,-6.119 L -0.154,-6.571 C -0.281,-6.872 -0.376,-7.103 -0.44,-7.265 l -0.044,-0.15 2.151,1.242 0.004,-1.233 -3.486,-2.012 -0.003,1.159 c -10e-4,0.022 0.076,0.22 0.234,0.599 0.077,0.169 0.159,0.363 0.248,0.569 l 0.286,0.635 c 0.165,0.36 0.426,0.93 0.782,1.716 0.337,0.731 0.584,1.366 0.749,1.902 0.133,0.437 0.203,0.815 0.202,1.123 -0.001,0.257 -0.065,0.433 -0.187,0.539 -0.135,0.113 -0.314,0.098 -0.525,-0.024 -0.306,-0.177 -0.523,-0.5 -0.649,-0.977 -0.038,-0.154 -0.063,-0.331 -0.063,-0.521 l 0.001,-0.316 -1.079,-0.623 v 0.22 c -0.003,0.793 0.187,1.505 0.556,2.137 C -0.944,-0.729 -0.524,-0.302 0,0"
       style="fill:#c5c5c5 icc-color(sRGB-IEC61966-2, 0.1, 0.772995, 0.772995, 0.772995);fill-opacity:1;fill-rule:nonzero;stroke:none"
       transform="matrix(0.35277776,0,0,-0.35277776,93.786748,166.03977)"
       clip-path="url(#clipPath50)" />
    <path
       id="path51"
       d="m 0,0 -0.013,4.564 c 0,0.198 -0.065,0.337 -0.186,0.406 C -0.328,5.036 -0.475,5.024 -0.647,4.925 -0.819,4.825 -0.972,4.664 -1.093,4.454 -1.214,4.245 -1.271,4.035 -1.271,3.837 l 0.013,-4.563 c 0.001,-0.198 0.059,-0.341 0.18,-0.411 0.122,-0.069 0.276,-0.054 0.448,0.046 0.172,0.099 0.319,0.257 0.446,0.471 C -0.063,-0.411 0.001,-0.198 0,0 M 0.615,6.315 C 0.948,6.118 1.122,5.741 1.124,5.19 L 1.137,0.634 C 1.138,0.084 0.967,-0.492 0.63,-1.069 0.292,-1.654 -0.116,-2.08 -0.594,-2.357 c -0.479,-0.276 -0.895,-0.325 -1.234,-0.132 -0.34,0.194 -0.507,0.568 -0.509,1.118 L -2.35,3.185 c -10e-4,0.558 0.164,1.123 0.507,1.711 0.337,0.584 0.746,1.018 1.224,1.295 0.486,0.28 0.895,0.318 1.234,0.124"
       style="fill:#c5c5c5 icc-color(sRGB-IEC61966-2, 0.1, 0.772995, 0.772995, 0.772995);fill-opacity:1;fill-rule:nonzero;stroke:none"
       transform="matrix(0.35277776,0,0,-0.35277776,95.547743,167.2966)"
       clip-path="url(#clipPath52)" />
    <path
       id="path53"
       d="m 0,0 c 0.064,-0.037 0.141,-0.029 0.237,0.026 0.089,0.052 0.165,0.133 0.229,0.243 0.064,0.11 0.095,0.217 0.095,0.32 L 0.554,2.98 C 0.554,3.083 0.522,3.153 0.458,3.189 0.394,3.226 0.317,3.218 0.228,3.166 0.132,3.111 0.055,3.03 -0.008,2.92 -0.072,2.81 -0.104,2.703 -0.103,2.601 L -0.097,0.209 C -0.096,0.106 -0.064,0.036 0,0 M 0.895,0.039 C 0.717,-0.269 0.5,-0.497 0.251,-0.641 0.002,-0.785 -0.215,-0.808 -0.388,-0.702 c -0.179,0.102 -0.27,0.293 -0.27,0.579 l -0.007,2.385 c -0.001,0.286 0.088,0.587 0.266,0.895 0.172,0.298 0.389,0.526 0.638,0.67 0.255,0.147 0.466,0.166 0.645,0.064 0.18,-0.102 0.27,-0.3 0.271,-0.579 L 1.161,0.928 C 1.162,0.642 1.073,0.348 0.895,0.039"
       style="fill:#c5c5c5 icc-color(sRGB-IEC61966-2, 0.1, 0.772995, 0.772995, 0.772995);fill-opacity:1;fill-rule:nonzero;stroke:none"
       transform="matrix(0.35277776,0,0,-0.35277776,96.443339,165.68286)"
       clip-path="url(#clipPath54)" />
    <path
       id="path55"
       d="m 0,0 0.632,0.365 -3.678,-10.979 -0.645,-0.372 z"
       style="fill:#c5c5c5 icc-color(sRGB-IEC61966-2, 0.1, 0.772995, 0.772995, 0.772995);fill-opacity:1;fill-rule:nonzero;stroke:none"
       transform="matrix(0.35277776,0,0,-0.35277776,97.640174,163.69559)"
       clip-path="url(#clipPath56)" />
    <path
       id="path57"
       d="m 0,0 -0.007,2.384 c 0,0.103 -0.032,0.18 -0.096,0.217 C -0.167,2.63 -0.244,2.622 -0.34,2.567 -0.429,2.515 -0.506,2.434 -0.569,2.332 -0.633,2.221 -0.665,2.107 -0.664,2.005 l 0.006,-2.385 c 0.001,-0.11 0.033,-0.179 0.097,-0.216 0.064,-0.036 0.141,-0.029 0.23,0.023 0.096,0.055 0.172,0.136 0.236,0.246 C -0.031,-0.217 0,-0.11 0,0 M 0.323,3.295 C 0.496,3.189 0.586,2.999 0.587,2.713 L 0.594,0.328 C 0.595,0.035 0.506,-0.259 0.328,-0.56 0.15,-0.862 -0.061,-1.086 -0.31,-1.23 c -0.249,-0.144 -0.466,-0.166 -0.646,-0.071 -0.173,0.106 -0.263,0.296 -0.263,0.582 l -0.007,2.385 c -0.001,0.286 0.088,0.587 0.26,0.892 0.178,0.309 0.395,0.529 0.644,0.673 0.255,0.147 0.466,0.166 0.645,0.064"
       style="fill:#c5c5c5 icc-color(sRGB-IEC61966-2, 0.1, 0.772995, 0.772995, 0.772995);fill-opacity:1;fill-rule:nonzero;stroke:none"
       transform="matrix(0.35277776,0,0,-0.35277776,97.785237,166.32876)"
       clip-path="url(#clipPath58)" />
  </g>
</svg>
